PathFileType	4	(X/Y/Z)	32_2_4_p0_0-269.trc
DataRate	CameraRate	NumFrames	NumMarkers	Units	OrigDataRate	OrigDataStartFrame	OrigNumFrames
59.0	59.0	5	27	m	59.0	33	270
Frame#	Time	RHip			RKnee			RAnkle			RBigToe			RSmallToe			RHeel			LHip			LKnee			LAnkle			LBigToe			LSmallToe			LHeel			Neck			Head			Nose			RShoulder			RElbow			RWrist			RThumb			RIndex			RPinky			LShoulder			LElbow			LWrist			LThumb			LIndex			LPinky			
		X1	Y1	Z1	X2	Y2	Z2	X3	Y3	Z3	X4	Y4	Z4	X5	Y5	Z5	X6	Y6	Z6	X7	Y7	Z7	X8	Y8	Z8	X9	Y9	Z9	X10	Y10	Z10	X11	Y11	Z11	X12	Y12	Z12	X13	Y13	Z13	X14	Y14	Z14	X15	Y15	Z15	X16	Y16	Z16	X17	Y17	Z17	X18	Y18	Z18	X19	Y19	Z19	X20	Y20	Z20	X21	Y21	Z21	X22	Y22	Z22	X23	Y23	Z23	X24	Y24	Z24	X25	Y25	Z25	X26	Y26	Z26	X27	Y27	Z27	
33	0.559322033898305	0.32104346717241206	0.43222167951079304	1.0455504697286158	0.3148433301730638	0.47490414668032627	1.4839322552600098	0.3109305328619194	0.4811566628398501	1.90609327661567	0.31020791391738	0.3234834834608906	1.9064334277901636	0.3726403271071243	0.32718609870571047	1.905163953032216	0.29323190879661953	0.5566042752242112	1.996703429998771	0.1261922228499684	0.46333217939925103	1.0657028212279998	0.13048699647363765	0.4958452356196287	1.489328037128957	0.1373685716799975	0.5087985315648871	1.9456163336022065	0.1601715080648078	0.3233552568563854	1.9123672660056636	0.11282505285934342	0.35302846025006773	1.9222026629452607	0.15834195695405	0.5368721109021871	1.9856113315614463	0.23251860284094458	0.48220893429773004	0.49246252397784407	0.22714952019443518	0.427852890919825	0.24548241176522909	0.21903523850456286	0.3662810980607126	0.3536186316104447	0.37768675863418855	0.4611084108231151	0.54216903734959	0.4357637487741627	0.2592864828222794	0.6847818852580639	0.33374242405613014	0.07229014762807238	0.5242469687833837	0.2811676663059716	0.07913016929072358	0.4597755726248171	0.2800679658458326	-0.005425240536263582	0.43928851030100985	0.28199976490281625	-0.02920317969788733	0.45764109959908644	0.0866584298195771	0.4789408615993243	0.5367807135552208	0.025978294101915676	0.2310422522498709	0.6511162871036511	0.1552819539571212	0.10138104230473131	0.5102114037236302	0.2069858886761143	0.11141392098073542	0.4561674673092576	0.21856976732620642	0.047210191420948004	0.43080964079317635	0.213493773586691	0.006712933785766993	0.43666432700163327
34	0.576271186440678	0.32372704775871985	0.44212754109232805	1.0447613163397944	0.31900647562126067	0.4780887455254043	1.4852909094573656	0.31095650328490565	0.4809743111297019	1.9059834296998523	0.3102493325279402	0.32350734154673666	1.9065094832383587	0.37266361243269736	0.3271328542570198	1.9051093712555849	0.2937150641743058	0.5543521191130336	2.0003974801813573	0.12621959937220265	0.46288805391793286	1.0612322959149687	0.13053719550629417	0.49588935811966817	1.489342285782072	0.14176704846261395	0.5109975289840951	1.946663112541112	0.1601883438189547	0.32330076539194413	1.9121481423226299	0.11279957618826268	0.3531480146951304	1.9221964296083371	0.15831614525499402	0.5368912129026693	1.9856659795979688	0.23697011105879368	0.4854018974956766	0.49603356705822693	0.2270084620493018	0.4286214230148663	0.24129389753540145	0.22312277340644174	0.3683471219730412	0.36002715417127584	0.3743650215189758	0.45005441998997947	0.5473283362557733	0.43003604320311484	0.2499883702884283	0.6506760622457095	0.3407709947244479	0.06654735825544901	0.4778145356271217	0.2732207296660188	0.07461568362739941	0.416076450623545	0.2778128849351652	0.008169633528079995	0.39008399146700046	0.28414326612323604	-0.021092344043140844	0.4188336431159738	0.09037009439949892	0.4890760726460863	0.5394306980081951	0.0277340777362854	0.22518177900151842	0.6352010823723055	0.15605044144803984	0.08530462975455741	0.4617251999951688	0.19088124001027115	0.09043528221084343	0.44069827705303355	0.2128742885836894	0.042041238765269086	0.3799665117875992	0.20516751255268087	0.006687655504988188	0.3927540343530439
35	0.5932203389830508	0.32212964602038446	0.44028717857433153	1.0398540492312156	0.31819153912167664	0.47705535730568976	1.4806781758035747	0.315390457633045	0.4831257149706643	1.9071340908781829	0.3070082564996842	0.3132285959408251	1.8995631083799374	0.3770427730708531	0.32957762497256077	1.9064039212827444	0.29259813712423094	0.5544746162846248	2.0056423467838633	0.1245914721307427	0.4775405092710674	1.0613450110030074	0.13054186576282478	0.49602535313892665	1.4893812941488456	0.13622011647258664	0.5091774280454371	1.950175537278829	0.1601380071175536	0.32343944354946563	1.9123162752534402	0.11283245563575404	0.3531743218569983	1.922380333755999	0.15892406797660943	0.5354332764704218	1.989768062077438	0.23623948709261247	0.4843227805806908	0.4906090290652579	0.23069790011963498	0.430915692491946	0.24215536410126573	0.22274923247753325	0.368186251869553	0.3596710576758301	0.37354901523640943	0.4574131408928163	0.5443989728117969	0.43268977503979034	0.2410118375962496	0.6280697506032075	0.3522357673085609	0.0806988765740132	0.449163811582945	0.2683053281822579	0.03842975089868554	0.38446244927817463	0.27526630881575315	-0.014424633080257666	0.3659984119611759	0.2696708628697694	-0.019804215402751058	0.3744101484240811	0.08213277298104082	0.4543131572677103	0.5354062889205489	0.02378706868731569	0.24431518536455285	0.6158824965908904	0.15736420720779332	0.06712358866922885	0.4478682833697167	0.21000073791389742	0.03930465593810963	0.3858921166879034	0.21602914341442808	0.0319121829277824	0.36280950710939236	0.21782183893820325	-0.03197444347304078	0.3578189092335648
36	0.6101694915254238	0.32197445819692244	0.440157636149004	1.0397476457994959	0.31392923512955856	0.4671329445041293	1.4715998443072058	0.3140104964996652	0.4836973687236787	1.8977217728504108	0.3069458203805444	0.31307258329805404	1.8995607836491992	0.37265823684610344	0.32709464937628147	1.904830462320432	0.2921662994678605	0.5566628908043941	2.001700490832161	0.12085529687766061	0.46599791110509614	1.0493348697880414	0.13380995368247228	0.49709022823955784	1.485152599521174	0.14092611369310787	0.5094560814470873	1.9402099506213422	0.16008911386262054	0.3234264193545023	1.9122392744029653	0.11280713946375598	0.35321209958055555	1.9222258369323917	0.15827218974076343	0.5370603138619313	1.9854767370823392	0.23323332154466977	0.4583684972457463	0.47923458062175334	0.23455726090759968	0.4342656306882965	0.23976145485464775	0.21941045081757268	0.3675939591432455	0.3602767935513207	0.36565905326404163	0.45411942263573063	0.5296895478160257	0.44137605264548985	0.22936195178514657	0.6156574716308516	0.35746132393647645	0.10043251489321159	0.43803363905332243	0.2721601909929026	0.05519953037755179	0.36619885008968217	0.28115397082416904	0.02134914447811459	0.32845407793173415	0.2864114231784155	0.009338089989685161	0.34730436422340233	0.08408195678391633	0.4293310044958014	0.5228228302953226	0.0033278454532857456	0.2369719815564747	0.6067088044094854	0.15218829658420005	0.07961652590139831	0.4156458509774436	0.20715990643134008	0.058333268283053415	0.37411685125467264	0.2145008190461682	0.03629599470426703	0.3257018851676954	0.2108701147758609	-0.006463424943869876	0.3358350596852087
37	0.6271186440677966	0.3217469937639976	0.4395984124785598	1.0313066736300152	0.31306981733239664	0.46601833658341013	1.466789385757775	0.3138831932462525	0.48369120348591294	1.8979599800888016	0.3069445883090179	0.31288453221562995	1.8994912497708285	0.37709804327316604	0.3294977230132927	1.9062313627828764	0.29211697896613636	0.5565775179178791	2.001825738008244	0.11893753720227417	0.4742134597578299	1.0482464946575307	0.13342873860458693	0.49862290316100205	1.4817561561428982	0.1397559960825586	0.5098930151651697	1.9448352453604771	0.15885575736661287	0.32392400700754426	1.9168976576379804	0.10767585034099073	0.36683725451120036	1.9318910060978627	0.15819094153865165	0.537069604001197	1.985570502558188	0.2329212749301355	0.45753530860310115	0.4753256078199632	0.2374689435983067	0.44443251032563097	0.23959714922984862	0.21854025956598683	0.3749900215391274	0.3500295908143226	0.36092032741283436	0.444655383588552	0.5180487443041304	0.44352534998257825	0.23954237729525263	0.5967597589858747	0.35525760174446236	0.10219768636890669	0.4044844264104056	0.27616884816418563	0.05310577040257423	0.3272771239534341	0.2774857227441909	0.03292955569199947	0.3122803410453748	0.2846550589787125	0.0279529483750432	0.32388165424123666	0.08443650089318643	0.43049252989280606	0.5163572820672667	-0.0015887242262456133	0.23705443488931255	0.5863647508295201	0.14888415217490072	0.07396160735110616	0.3874765115187938	0.2159443770973729	0.04325778833564604	0.3486889832770347	0.21739011902307268	0.03814139740874796	0.3053652023099626	0.20762655716090317	-0.0014055435448620246	0.3147942414523606
